<svg width="32" height="32" viewBox="0 0 32 32" fill="none" xmlns="http://www.w3.org/2000/svg">
<rect width="32" height="32" rx="16" fill="#EFF2F5"/>
<path fill-rule="evenodd" clip-rule="evenodd" d="M14.7349 16L10.6326 11.8977C10.2832 11.5483 10.2832 10.9819 10.6326 10.6326C10.9819 10.2832 11.5483 10.2832 11.8977 10.6326L16 14.7349L20.1023 10.6326C20.4517 10.2832 21.0181 10.2832 21.3674 10.6326C21.7168 10.9819 21.7168 11.5483 21.3674 11.8977L17.2651 16L21.3674 20.1023C21.7168 20.4517 21.7168 21.0181 21.3674 21.3674C21.0181 21.7168 20.4517 21.7168 20.1023 21.3674L16 17.2651L11.8977 21.3674C11.5483 21.7168 10.9819 21.7168 10.6326 21.3674C10.2832 21.0181 10.2832 20.4517 10.6326 20.1023L14.7349 16Z" fill="#667085"/>
</svg>
